HIERARCHY
ROOT Wrist_L
{
	OFFSET 0.00 0.00 0.00
	CHANNELS 6 Xposition Yposition Zposition Xrotation Yrotation Zrotation
	Joint Little_Metacarpal_L
	{
		OFFSET -0.028707 0.002084 -0.027748
		CHANNELS 3 Xrotation Yrotation Zrotation
		Joint Little_Proximal_L
		{
			OFFSET -0.033639 -0.008508 -0.095537
			CHANNELS 3 Xrotation Yrotation Zrotation
			Joint Little_Intermediate_L
			{
				OFFSET -0.014886 -0.012114 -0.055495
				CHANNELS 3 Xrotation Yrotation Zrotation
				Joint Little_Distal_L
				{
					OFFSET -0.006141 -0.007774 -0.023711
					CHANNELS 3 Xrotation Yrotation Zrotation
					Joint Little_Tip_L
					{
						OFFSET -0.00227 -0.009647 -0.019238
						CHANNELS 3 Xrotation Yrotation Zrotation
						End Site
						{
							OFFSET 0.001 0.001 0.001
						}
					}
				}
			}
		}
	}
	Joint Ring_Metacarpal_L
	{
		OFFSET -0.012366 0.001725 -0.029352
		CHANNELS 3 Xrotation Yrotation Zrotation
		Joint Ring_Proximal_L
		{
			OFFSET -0.018549 0.010541 -0.117421
			CHANNELS 3 Xrotation Yrotation Zrotation
			Joint Ring_Intermediate_L
			{
				OFFSET -0.014284 -0.016597 -0.060738
				CHANNELS 3 Xrotation Yrotation Zrotation
				Joint Ring_Distal_L
				{
					OFFSET -0.005423 -0.013867 -0.033029
					CHANNELS 3 Xrotation Yrotation Zrotation
					Joint Ring_Tip_L
					{
						OFFSET -0.002835 -0.011872 -0.02616
						CHANNELS 3 Xrotation Yrotation Zrotation
						End Site
						{
							OFFSET 0.001 0.001 0.001
						}
					}
				}
			}
		}
	}
	Joint Middle_Metacarpal_L
	{
		OFFSET 0.001855 0.002895 -0.025812
		CHANNELS 3 Xrotation Yrotation Zrotation
		Joint Palm_L
		{
			OFFSET 0.00053 0.012199 -0.064706
			CHANNELS 3 Xrotation Yrotation Zrotation
			Joint Middle_Proximal_L
			{
				OFFSET 0.00053 0.002961 -0.064706
				CHANNELS 3 Xrotation Yrotation Zrotation
				Joint Middle_Intermediate_L
				{
					OFFSET -0.000036 -0.01298 -0.061775
					CHANNELS 3 Xrotation Yrotation Zrotation
					Joint Middle_Distal_L
					{
						OFFSET 0.000274 -0.015333 -0.053566
						CHANNELS 3 Xrotation Yrotation Zrotation
						Joint Middle_Tip_L
						{
							OFFSET -0.000548 -0.007813 -0.02408
							CHANNELS 3 Xrotation Yrotation Zrotation
							End Site
							{
								OFFSET 0.001 0.001 0.001
							}
						}
					}
				}
			}
		}
	}
	Joint Index_Metacarpal_L
	{
		OFFSET 0.015899 0.00425 -0.023128
		CHANNELS 3 Xrotation Yrotation Zrotation
		Joint Index_Proximal_L
		{
			OFFSET 0.015536 0.014243 -0.130857
			CHANNELS 3 Xrotation Yrotation Zrotation
			Joint Index_Intermediate_L
			{
				OFFSET 0.010432 -0.007019 -0.058063
				CHANNELS 3 Xrotation Yrotation Zrotation
				Joint Index_Distal_L
				{
					OFFSET 0.008816 -0.004391 -0.036962
					CHANNELS 3 Xrotation Yrotation Zrotation
					Joint Index_Tip_L
					{
						OFFSET 0.005635 -0.01015 -0.025037
						CHANNELS 3 Xrotation Yrotation Zrotation
						End Site
						{
							OFFSET 0.001 0.001 0.001
						}
					}
				}
			}
		}
	}
	Joint Thumb_Metacarpal_L
	{
		OFFSET 0.029443 -0.001235 -0.02009
		CHANNELS 3 Xrotation Yrotation Zrotation
		Joint Thumb_Proximal_L
		{
			OFFSET 0.045426 -0.009009 -0.055883
			CHANNELS 3 Xrotation Yrotation Zrotation
			Joint Thumb_Distal_L
			{
				OFFSET 0.036738 -0.017865 -0.036781
				CHANNELS 3 Xrotation Yrotation Zrotation
				Joint Thumb_Tip_L
				{
					OFFSET 0.021267 -0.018606 -0.029161
					CHANNELS 3 Xrotation Yrotation Zrotation
					End Site
					{
						OFFSET 0.001 0.001 0.001
					}
				}
			}
		}
	}
}
MOTION
Frames: 12
Frame Time: 1
0.00 0.00 0.00 0.00 0.00 0.00 0.00 0.00 0.00 0.00 0.00 0.00 0.00 0.00 0.00 0.00 0.00 0.00 0.00 0.00 0.00 0.00 0.00 0.00 0.00 0.00 0.00 0.00 0.00 0.00 0.00 0.00 0.00 0.00 0.00 0.00 0.00 0.00 0.00 0.00 0.00 0.00 0.00 0.00 0.00 0.00 0.00 0.00 0.00 0.00 0.00 0.00 0.00 0.00 0.00 0.00 0.00 0.00 0.00 0.00 0.00 0.00 0.00 0.00 0.00 0.00 0.00 0.00 0.00 0.00 0.00 0.00 0.00 0.00 0.00 0.00 0.00 0.00 0.00 0.00 0.00 
-0.00488 -0.05724 0.7018 10.87457 -15.025518 -163.583468 0.00 0.00 0.00 -4.909683 -0.216734 5.052128 -22.794078 0.892364 -4.424848 9.170583 -0.200309 -2.497244 0.00 0.00 0.00 0.00 0.00 0.00 -7.154274 -0.576621 9.203937 -22.906421 1.821011 -8.970547 4.439615 0.007501 0.193433 0.00 0.00 0.00 0.00 0.00 0.00 0.00 0.00 0.00 -7.337214 0.21591 -3.366447 -29.928014 1.419909 -5.309036 -0.078823 -0.001741 2.533127 0.00 0.00 0.00 0.00 0.00 0.00 1.416806 -0.176454 -14.197442 -7.095346 0.172687 -2.784776 17.451393 0.082487 0.537458 0.00 0.00 0.00 -7.960498 1.379452 -19.631897 9.659288 -2.559459 -29.619129 14.975417 1.620911 12.286003 0.00 0.00 0.00 
0.001013 -0.1528 0.4608 29.1696 -116.973096 -133.942605 0.00 0.00 0.00 -35.528233 6.609606 -13.847898 -58.821746 5.760757 -11.504409 -27.102151 0.385166 -6.066263 0.00 0.00 0.00 0.00 0.00 0.00 -21.957492 3.627059 -7.275734 -54.431232 3.153467 -11.022792 -27.312648 0.48848 -2.139578 0.00 0.00 0.00 0.00 0.00 0.00 0.00 0.00 0.00 -8.041218 1.388261 -12.111557 -39.119792 1.095313 -4.738146 -11.679723 -0.193241 4.392905 0.00 0.00 0.00 0.00 0.00 0.00 1.01112 -0.235578 -16.987492 -20.886459 0.634842 -4.682323 9.960347 -0.590062 -2.294405 0.00 0.00 0.00 -10.463076 0.834063 -16.226793 19.485078 -1.895282 -26.989428 4.823353 1.103298 9.287681 0.00 0.00 0.00 
-0.05453 -0.002965 0.6191 26.533835 5.123579 -105.095595 0.00 0.00 0.00 -58.890745 31.876462 -47.15245 -76.41311 46.901335 -55.214559 -41.99439 1.758474 -8.467193 0.00 0.00 0.00 0.00 0.00 0.00 -52.490318 12.094392 -20.741324 -74.521503 30.044681 -40.26444 -54.206044 6.710002 -11.39652 0.00 0.00 0.00 0.00 0.00 0.00 0.00 0.00 0.00 -16.61728 0.537422 -8.139615 -77.746404 2.157712 -5.914866 -63.938596 -3.111329 8.665324 0.00 0.00 0.00 0.00 0.00 0.00 -32.841619 2.232995 -25.584994 -87.317002 61.99579 -67.67794 -36.570284 -1.199507 0.137986 0.00 0.00 0.00 -4.708401 1.265307 -19.488575 11.354439 -3.216785 -31.944173 -4.022011 1.197299 22.628804 0.00 0.00 0.00 
0.0964 -0.04101 0.5056 -14.974761 101.640216 157.194837 0.00 0.00 0.00 -74.851572 -9.378461 -3.021302 -75.287515 87.454616 -96.927146 -14.882386 6.41028 -17.946927 0.00 0.00 0.00 0.00 0.00 0.00 -74.616907 -3.829121 -3.309705 -81.38126 118.03795 -129.430896 -21.4726 0.693692 -1.999032 0.00 0.00 0.00 0.00 0.00 0.00 0.00 0.00 0.00 -71.389431 7.576255 -17.12909 -77.455472 -174.588091 170.906783 -14.170439 -1.38082 6.17375 0.00 0.00 0.00 0.00 0.00 0.00 -12.879283 -1.650212 -15.760959 -15.432628 -0.66794 -3.184616 15.031564 -1.482956 1.503735 0.00 0.00 0.00 -28.272192 7.980821 -42.366209 17.415855 -7.475348 -48.943513 33.040002 -9.645236 -16.8842 0.00 0.00 0.00 
0.05551 0.08964 0.6524 -2.552575 66.304683 145.755294 0.00 0.00 0.00 -17.901023 -19.940228 9.786806 -77.378516 -134.481343 123.926966 10.129464 4.347479 27.996968 0.00 0.00 0.00 0.00 0.00 0.00 -27.886991 -15.065739 9.900193 -68.283006 -138.393389 125.395853 12.910497 -1.655168 27.402552 0.00 0.00 0.00 0.00 0.00 0.00 0.00 0.00 0.00 -35.3308 -4.422473 -2.930743 -69.734941 -126.230912 120.845403 10.570025 -1.916721 22.719716 0.00 0.00 0.00 0.00 0.00 0.00 -43.05224 2.614835 -24.529415 -74.119464 -101.558131 109.379558 21.298212 -1.553043 1.279281 0.00 0.00 0.00 -35.704066 -14.19838 -1.835953 14.017662 -3.150283 -33.078521 19.478023 7.320132 20.130721 0.00 0.00 0.00 
0.285 -0.09098 1.087 -6.238899 57.201506 104.084795 0.00 0.00 0.00 -17.255059 -25.596329 28.365724 -49.173803 -89.265265 75.264511 32.167298 4.471412 28.334111 0.00 0.00 0.00 0.00 0.00 0.00 -31.120026 -21.98629 23.894264 -43.733974 -99.087515 79.745184 22.784458 -0.056095 32.597416 0.00 0.00 0.00 0.00 0.00 0.00 0.00 0.00 0.00 -35.367426 -7.470789 2.33561 -52.089864 -104.902751 96.804483 14.932146 -1.601942 24.144782 0.00 0.00 0.00 0.00 0.00 0.00 -49.812525 2.665614 -24.599372 -66.998132 -85.036367 91.907142 17.875657 0.994419 8.865054 0.00 0.00 0.00 -29.528311 -16.235727 1.937391 10.622472 -2.389314 -29.514798 11.596369 5.54142 13.512883 0.00 0.00 0.00 
-0.03309 0.1237 0.5917 -18.552769 27.167115 -172.624753 0.00 0.00 0.00 -9.495425 -19.05646 0.680352 -25.253067 -5.165236 -35.88329 42.974683 13.401758 42.866281 0.00 0.00 0.00 0.00 0.00 0.00 -2.041414 -14.280536 -1.841902 -39.657315 2.936665 -43.627164 42.40428 7.080242 45.612 0.00 0.00 0.00 0.00 0.00 0.00 0.00 0.00 0.00 -0.347379 -4.34492 -7.364887 -35.445967 3.919034 -30.037372 24.162802 0.767878 31.196708 0.00 0.00 0.00 0.00 0.00 0.00 -11.630494 0.147587 -19.943319 -14.771843 -0.087965 -11.03722 14.369137 2.052346 12.671708 0.00 0.00 0.00 -13.609065 -7.814087 -20.500374 12.566013 1.448376 -10.589427 9.67852 5.955302 15.754417 0.00 0.00 0.00 
0.1034 0.1237 0.607 -27.776899 -20.800286 -56.49883 0.00 0.00 0.00 -38.289159 -24.357689 13.315762 -38.524408 -49.935769 39.627388 -9.789262 13.629124 43.579622 0.00 0.00 0.00 0.00 0.00 0.00 -24.796153 -16.068015 5.698932 -41.042767 -45.633187 26.112851 -14.481113 8.48568 50.731029 0.00 0.00 0.00 0.00 0.00 0.00 0.00 0.00 0.00 -23.399344 -3.925132 -9.363965 -49.576976 -25.562002 12.215397 -20.592588 0.784415 31.685685 0.00 0.00 0.00 0.00 0.00 0.00 10.159269 0.015845 -9.892639 -13.211631 -1.943834 -3.372903 18.4833 -1.877221 -1.15348 0.00 0.00 0.00 -19.594549 -9.53994 -14.473331 17.696723 -5.983101 -38.504679 -1.566088 4.460884 -5.040475 0.00 0.00 0.00 
-0.04491 -0.02722 0.4529 26.147887 -37.670266 -135.707977 0.00 0.00 0.00 -52.176993 -17.358495 3.541328 -26.341943 -57.37796 53.378598 -22.590255 15.917747 35.435179 0.00 0.00 0.00 0.00 0.00 0.00 -34.414359 -14.307609 2.14891 -28.076543 -58.67864 48.762503 -29.032901 16.224935 30.210753 0.00 0.00 0.00 0.00 0.00 0.00 0.00 0.00 0.00 -11.626623 -3.703817 -10.095528 -50.02032 -43.181207 35.155691 -41.028151 3.368542 26.722779 0.00 0.00 0.00 0.00 0.00 0.00 -16.891329 0.691929 -21.052958 -68.318277 0.88367 -7.21142 -17.980951 -1.880342 -1.822842 0.00 0.00 0.00 -17.895514 -8.687498 -17.125241 15.447993 -4.260467 -32.471443 -3.62463 3.056939 25.235852 0.00 0.00 0.00 
0.05554 -0.05866 0.5959 14.786518 0.075469 -131.17142 0.00 0.00 0.00 -28.109353 -23.044811 12.158416 -15.548328 -54.083931 44.221729 29.254663 15.404199 27.501108 0.00 0.00 0.00 0.00 0.00 0.00 -25.157357 -20.210764 13.961937 -22.042653 -52.663402 34.639485 14.787192 16.835334 25.6463 0.00 0.00 0.00 0.00 0.00 0.00 0.00 0.00 0.00 -15.147024 -6.385078 1.442895 -34.632027 -29.807933 15.576643 8.306217 5.177925 20.890002 0.00 0.00 0.00 0.00 0.00 0.00 -23.739989 -2.349261 -12.324066 -32.021532 -7.012613 2.551216 15.436118 -1.970591 2.067783 0.00 0.00 0.00 -3.628836 -8.485856 -18.196717 7.907332 0.249096 -10.501559 7.379596 2.809705 17.735165 0.00 0.00 0.00 
0.06508 -0.1034 0.6584 17.451108 12.840193 -168.574519 0.00 0.00 0.00 -27.486874 -20.44917 6.596144 -25.74232 -48.345913 28.105371 38.127024 -5.471855 -9.139029 0.00 0.00 0.00 0.00 0.00 0.00 -17.94233 -16.191544 3.069784 -10.529339 -55.24897 43.794948 6.502499 11.614072 -2.015151 0.00 0.00 0.00 0.00 0.00 0.00 0.00 0.00 0.00 -12.719527 -4.721192 -5.457761 -35.516588 -55.236361 58.448422 0.682923 3.590502 0.88269 0.00 0.00 0.00 0.00 0.00 0.00 -25.405812 -4.300218 -7.635239 -29.704018 -11.797292 11.861337 14.815625 -2.279644 0.883459 0.00 0.00 0.00 -42.168434 -8.393186 -18.421565 21.192989 -7.127201 -39.097038 9.481997 2.403551 14.965937 0.00 0.00 0.00 
